<svg id="Group_222" data-name="Group 222" xmlns="http://www.w3.org/2000/svg" viewBox="5283.193 -338.46 465.66 45">
  <defs>
    <style>
      .cls-1, .cls-2, .cls-3 {
        fill: #4ab2e5;
      }

      .cls-2 {
        font-size: 24px;
        font-family: AdobeClean-Light, Adobe Clean;
        font-weight: 300;
      }

      .cls-3 {
        font-size: 36px;
        font-family: AdobeClean-Bold, Adobe Clean;
        font-weight: 700;
      }
    </style>
  </defs>
  <path id="Path_60" data-name="Path 60" class="cls-1" d="M74.246,9.828a4.106,4.106,0,1,1-8.146,0,4.106,4.106,0,1,1,8.146,0Z" transform="translate(5220.799 -332.854)"/>
  <path id="Path_61" data-name="Path 61" class="cls-1" d="M127.046,9.828a4.106,4.106,0,1,1-8.146,0,4.106,4.106,0,1,1,8.146,0Z" transform="translate(5196.672 -332.854)"/>
  <path id="Path_62" data-name="Path 62" class="cls-1" d="M100.975,5.554c0,3.086-2.172,5.554-4.887,5.554S91.2,8.639,91.2,5.554,93.372,0,96.087,0C98.748,0,100.975,2.468,100.975,5.554Z" transform="translate(5209.329 -330.863)"/>
  <g id="Group_71" data-name="Group 71" transform="translate(5283.193 -318.645)">
    <g id="Group_70" data-name="Group 70">
      <path id="Path_63" data-name="Path 63" class="cls-1" d="M99.436,19.8c1.846,0,2.607,1.419,1.683,3.271L93.462,37.881c-.923,1.79-2.444,1.79-3.313-.062L83.2,23.379c-.869-1.851-.109-3.332,1.738-3.394l5.1-.062,2.118,6.171,2.227-6.171Z" transform="translate(-70.043 -19.8)"/>
      <g id="Group_69" data-name="Group 69" transform="translate(0 1.355)">
        <path id="Path_64" data-name="Path 64" class="cls-1" d="M71.453,22H68.847L67,27.122l-1.738-5.06-4.236.062c-1.521,0-2.172,1.3-1.466,2.777l5.756,11.972c.706,1.543,1.955,1.543,2.715.062l5.05-9.75-1.3-2.777A3.021,3.021,0,0,1,71.453,22Z" transform="translate(-59.276 -21.998)"/>
        <path id="Path_65" data-name="Path 65" class="cls-1" d="M126.873,22l-4.182.062-1.846,5.122-1.738-5.06h-2.389a3.185,3.185,0,0,1-.434,2.036L114.6,27.429l4.562,9.5c.706,1.543,1.955,1.543,2.715.062l6.354-12.28C128.991,23.171,128.394,21.937,126.873,22Z" transform="translate(-84.556 -21.996)"/>
      </g>
    </g>
  </g>
  <text id="CHAMPION" class="cls-2" transform="translate(5636.853 -303.229)"><tspan x="0" y="0">CHAMPION</tspan></text>
  <text id="COLLABORATION" class="cls-3" transform="translate(5360 -302.46)"><tspan x="0" y="0">COLLABORATION</tspan></text>
</svg>
