<svg xmlns="http://www.w3.org/2000/svg" viewBox="5549 -3031 25.534 21.795">
  <defs>
    <style>
      .cls-1, .cls-2 {
        fill: none;
      }

      .cls-2 {
        stroke: #707070;
      }

      .cls-3, .cls-4 {
        stroke: none;
      }

      .cls-4 {
        fill: #707070;
      }
    </style>
  </defs>
  <g id="Group_92" data-name="Group 92" transform="translate(5132 -3303)">
    <g id="Union_2" data-name="Union 2" class="cls-1" transform="translate(417 272)">
      <path class="cls-3" d="M0,10.9C0,4.879,5.174,0,11.558,0S23.115,4.879,23.115,10.9a10.41,10.41,0,0,1-1.911,6l4.331,4.2-7.712-1.048a12.013,12.013,0,0,1-6.265,1.739C5.174,21.795,0,16.915,0,10.9Z"/>
      <path class="cls-4" d="M 11.55755233764648 20.79470062255859 C 13.60622310638428 20.79470062255859 15.59273242950439 20.2440013885498 17.30232238769531 19.20215034484863 L 17.60552215576172 19.01737213134766 L 17.95735359191895 19.06517219543457 L 22.65493202209473 19.70340538024902 L 20.50726318359375 17.61960220336914 L 19.89517211914062 17.02570152282715 L 20.38502311706543 16.32754135131836 C 21.51685333251953 14.71440124511719 22.11510276794434 12.83655166625977 22.11510276794434 10.89700126647949 C 22.11510276794434 5.439781188964844 17.37900352478027 1.000001311302185 11.55755233764648 1.000001311302185 C 5.73610258102417 1.000001311302185 1.00000274181366 5.439781188964844 1.00000274181366 10.89700126647949 C 1.00000274181366 16.35461044311523 5.73610258102417 20.79470062255859 11.55755233764648 20.79470062255859 M 11.55755233764648 21.79470062255859 C 5.174332618713379 21.79470062255859 2.786254981401726e-06 16.91536140441895 2.786254981401726e-06 10.89700126647949 C 2.786254981401726e-06 4.878631114959717 5.174332618713379 1.264953652935219e-06 11.55755233764648 1.264953652935219e-06 C 17.94077301025391 1.264953652935219e-06 23.11510276794434 4.878631114959717 23.11510276794434 10.89700126647949 C 23.11510276794434 13.11605167388916 22.4117431640625 15.18003082275391 21.20362281799316 16.90190124511719 L 25.53430366516113 21.10380172729492 L 17.82272338867188 20.05607032775879 C 16.01769256591797 21.15609169006348 13.86671257019043 21.79470062255859 11.55755233764648 21.79470062255859 Z"/>
    </g>
    <line id="Line_3" data-name="Line 3" class="cls-2" x2="12.018" transform="translate(421.953 279.552)"/>
    <line id="Line_4" data-name="Line 4" class="cls-2" x2="12.018" transform="translate(421.953 283.558)"/>
    <line id="Line_5" data-name="Line 5" class="cls-2" x2="12.018" transform="translate(421.953 287.564)"/>
  </g>
</svg>
