<svg id="Group_219" data-name="Group 219" xmlns="http://www.w3.org/2000/svg" viewBox="5283 -545.455 291 45.455">
  <defs>
    <style>
      .cls-1, .cls-2, .cls-3 {
        fill: #c1d22f;
      }

      .cls-2 {
        font-size: 36px;
        font-family: AdobeClean-Bold, Adobe Clean;
        font-weight: 700;
      }

      .cls-3 {
        font-size: 22px;
        font-family: AdobeClean-Light, Adobe Clean;
        font-weight: 300;
      }
    </style>
  </defs>
  <g id="Group_39" data-name="Group 39" transform="translate(5283 -545.455)">
    <path id="Path_44" data-name="Path 44" class="cls-1" d="M61.45,0C50.606,0,41.8,9.619,41.8,21.464s8.806,21.464,19.65,21.464S81.1,33.309,81.1,21.464,72.294,0,61.45,0Zm0,40.434c-9.54,0-17.285-8.461-17.285-18.881S51.91,2.583,61.45,2.583s17.285,8.461,17.285,18.881S70.989,40.434,61.45,40.434ZM71.071,23.69H51.829a.949.949,0,0,0-.9.98c0,7.57,5.3,11.578,10.6,11.578,5.218,0,10.6-4.008,10.6-11.578A1.094,1.094,0,0,0,71.071,23.69ZM61.45,34.2c-4,0-8.235-2.672-8.643-8.461H70.174C69.685,31.528,65.445,34.2,61.45,34.2ZM53.786,17.456a1.878,1.878,0,0,1,1.468-.623,2.237,2.237,0,0,1,1.468.623.93.93,0,0,0,1.3,0,1.16,1.16,0,0,0,0-1.425,3.705,3.705,0,0,0-5.544,0,1.16,1.16,0,0,0,0,1.425A.8.8,0,0,0,53.786,17.456Zm12.393,0a1.878,1.878,0,0,1,1.468-.623,2.237,2.237,0,0,1,1.468.623.93.93,0,0,0,1.3,0,1.16,1.16,0,0,0,0-1.425,3.705,3.705,0,0,0-5.544,0,1.16,1.16,0,0,0,0,1.425A.8.8,0,0,0,66.179,17.456Z" transform="translate(-41.8)"/>
    <path id="Path_45" data-name="Path 45" class="cls-1" d="M93.723,18.5c-3.588,0-6.523,3.206-6.523,7.125s2.935,7.125,6.523,7.125,6.523-3.206,6.523-7.125S97.31,18.5,93.723,18.5Zm0,13.448a6.1,6.1,0,0,1-5.789-6.323,5.812,5.812,0,1,1,11.578,0A6.1,6.1,0,0,1,93.723,31.948Zm3.18-5.522H90.461a.368.368,0,0,0-.326.356,3.52,3.52,0,1,0,7.012,0A.262.262,0,0,0,96.9,26.426ZM93.723,29.9a2.815,2.815,0,0,1-2.854-2.85h5.789A2.981,2.981,0,0,1,93.723,29.9Zm-2.609-5.522A.568.568,0,0,1,91.6,24.2a1.093,1.093,0,0,1,.489.178.38.38,0,0,0,.489,0,.436.436,0,0,0,0-.445,1.126,1.126,0,0,0-1.794,0,.436.436,0,0,0,0,.445C90.788,24.467,91.032,24.467,91.114,24.378Zm4.158,0a.567.567,0,0,1,.489-.178,1.093,1.093,0,0,1,.489.178.38.38,0,0,0,.489,0,.436.436,0,0,0,0-.445,1.126,1.126,0,0,0-1.794,0,.436.436,0,0,0,0,.445C94.946,24.467,95.19,24.467,95.272,24.378Z" transform="translate(-50.183 -2.024)"/>
    <path id="Path_46" data-name="Path 46" class="cls-1" d="M91.521,8.3A4.564,4.564,0,0,0,87.2,13.02a4.338,4.338,0,1,0,8.643,0A4.564,4.564,0,0,0,91.521,8.3Zm0,8.906a4.016,4.016,0,0,1-3.832-4.186,3.847,3.847,0,1,1,7.664,0A4.016,4.016,0,0,1,91.521,17.206Zm2.12-3.741H89.4a.272.272,0,0,0-.245.267,2.371,2.371,0,0,0,2.364,2.583,2.417,2.417,0,0,0,2.365-2.583Q93.764,13.466,93.641,13.466Zm-2.12,2.316a1.868,1.868,0,0,1-1.875-1.87h3.832A1.97,1.97,0,0,1,91.521,15.781ZM89.809,12.13a.413.413,0,0,1,.326-.178.6.6,0,0,1,.326.178.278.278,0,0,0,.163.089c.082,0,.082,0,.163-.089a.29.29,0,0,0,0-.356.845.845,0,0,0-.571-.267.712.712,0,0,0-.571.267.29.29,0,0,0,0,.356C89.564,12.219,89.728,12.219,89.809,12.13Zm2.691,0a.413.413,0,0,1,.326-.178.6.6,0,0,1,.326.178.279.279,0,0,0,.163.089c.082,0,.082,0,.163-.089a.29.29,0,0,0,0-.356.845.845,0,0,0-.571-.267.713.713,0,0,0-.571.267.29.29,0,0,0,0,.356C92.337,12.219,92.418,12.219,92.5,12.13Z" transform="translate(-50.183 -0.908)"/>
  </g>
  <text id="DELIGHT" class="cls-2" transform="translate(5360 -509)"><tspan x="0" y="0">DELIGHT</tspan></text>
  <text id="DRIVEN" class="cls-3" transform="translate(5505 -509)"><tspan x="0" y="0">DRIVEN</tspan></text>
</svg>
