<svg xmlns="http://www.w3.org/2000/svg" viewBox="6992 -2393.684 177.477 200">
  <defs>
    <style>
      .cls-1 {
        fill: #f2f2f0;
      }

      .cls-2 {
        fill: #00c3ff;
      }

      .cls-3 {
        fill: #00aaf0;
      }

      .cls-4 {
        fill: #e5e5da;
      }

      .cls-5 {
        fill: #f7c9a4;
      }

      .cls-6 {
        fill: #ffd9b6;
      }

      .cls-7 {
        fill: #493030;
      }

      .cls-8 {
        fill: #694b4b;
      }

      .cls-9 {
        fill: #5b4040;
      }
    </style>
  </defs>
  <g id="employee_2_" data-name="employee (2)" transform="translate(6953.894 -2393.684)">
    <path id="Path_614" data-name="Path 614" class="cls-1" d="M215.582,366.635v28.036a3.29,3.29,0,0,1-3.356,3.219H41.462a3.29,3.29,0,0,1-3.356-3.219V366.635c0-14.66,10.413-27.433,25.248-30.962l45.911-10.93h35.158l45.911,10.93C205.169,339.2,215.582,351.975,215.582,366.635Z" transform="translate(0 -197.891)"/>
    <path id="Path_615" data-name="Path 615" class="cls-2" d="M250.679,448.282H227.318l4.993-34.3.952-6.543h11.475l.952,6.543Z" transform="translate(-112.154 -248.282)"/>
    <path id="Path_616" data-name="Path 616" class="cls-3" d="M252.957,413.98H239.578l.952-6.543h11.475Z" transform="translate(-119.421 -248.282)"/>
    <g id="Group_183" data-name="Group 183" transform="translate(38.106 138.423)">
      <path id="Path_617" data-name="Path 617" class="cls-4" d="M61.038,354.362c-8.508,7.445-13.87,19.8-13.87,30.322v31.255H41.462a3.29,3.29,0,0,1-3.356-3.219V384.684C38.106,370.8,47.445,358.607,61.038,354.362Z" transform="translate(-38.106 -354.362)"/>
      <path id="Path_618" data-name="Path 618" class="cls-4" d="M417.585,354.362c8.508,7.445,13.87,19.8,13.87,30.322v31.255h5.706a3.29,3.29,0,0,0,3.356-3.219V384.684C440.518,370.8,431.178,358.607,417.585,354.362Z" transform="translate(-263.04 -354.362)"/>
    </g>
    <path id="Path_619" data-name="Path 619" class="cls-2" d="M227.091,374.953l-5.1-8.48a3.565,3.565,0,0,1,0-3.7l5.1-8.48a3.886,3.886,0,0,1,3.337-1.848h10.209a3.886,3.886,0,0,1,3.337,1.848l5.1,8.48a3.565,3.565,0,0,1,0,3.7l-5.1,8.48a3.886,3.886,0,0,1-3.337,1.848H230.428A3.886,3.886,0,0,1,227.091,374.953Z" transform="translate(-108.688 -214.774)"/>
    <rect id="Rectangle_268" data-name="Rectangle 268" class="cls-5" width="36.975" height="32.852" transform="translate(108.355 99.461)"/>
    <path id="Path_620" data-name="Path 620" class="cls-6" d="M357.242,152.41a13.5,13.5,0,0,1-10.741,13.02,14.231,14.231,0,0,1-3.2.361c-7.706,0-13.95-5.989-13.95-13.38s6.244-13.376,13.95-13.376a14.435,14.435,0,0,1,3.328.385A13.5,13.5,0,0,1,357.242,152.41Z" transform="translate(-172.632 -84.724)"/>
    <path id="Path_621" data-name="Path 621" class="cls-5" d="M346.624,139.418v22.757c0,1.093-.039,2.18-.124,3.254a14.225,14.225,0,0,1-3.2.361c-7.706,0-13.95-5.989-13.95-13.38s6.244-13.376,13.95-13.376A14.475,14.475,0,0,1,346.624,139.418Z" transform="translate(-172.631 -84.723)"/>
    <path id="Path_622" data-name="Path 622" class="cls-6" d="M142.055,152.41c0,7.391-6.245,13.38-13.95,13.38a14.275,14.275,0,0,1-3.209-.361,13.256,13.256,0,0,1-.124-26.006,14.226,14.226,0,0,1,3.333-.389C135.811,139.034,142.055,145.024,142.055,152.41Z" transform="translate(-45.078 -84.724)"/>
    <path id="Path_623" data-name="Path 623" class="cls-5" d="M157.508,152.41c0,7.391-6.244,13.38-13.95,13.38a14.273,14.273,0,0,1-3.209-.361c-.084-1.073-.124-2.161-.124-3.254V139.424a14.228,14.228,0,0,1,3.333-.389C151.264,139.035,157.508,145.024,157.508,152.41Z" transform="translate(-60.53 -84.724)"/>
    <path id="Path_624" data-name="Path 624" class="cls-6" d="M238.406,75.39V122.3c0,20.463-17.293,37.049-38.627,37.049s-38.627-16.587-38.627-37.049V75.39Z" transform="translate(-72.935 -45.941)"/>
    <g id="Group_184" data-name="Group 184" transform="translate(105.949 64.104)">
      <path id="Path_625" data-name="Path 625" class="cls-7" d="M207.747,173.168a2.994,2.994,0,0,1-3.054-2.93v-3.2a3.057,3.057,0,0,1,6.109,0v3.2A2.994,2.994,0,0,1,207.747,173.168Z" transform="translate(-204.693 -164.105)"/>
      <path id="Path_626" data-name="Path 626" class="cls-7" d="M295.361,173.168a2.994,2.994,0,0,1-3.054-2.93v-3.2a3.057,3.057,0,0,1,6.109,0v3.2A2.994,2.994,0,0,1,295.361,173.168Z" transform="translate(-256.626 -164.105)"/>
    </g>
    <path id="Path_627" data-name="Path 627" class="cls-5" d="M238.407,75.39v32.561l-12.965-2.082a4.426,4.426,0,0,1-3.8-4.309V96.668a1.693,1.693,0,0,0-1.515-1.655,391.026,391.026,0,0,0-39.739-2.736,1.707,1.707,0,0,0-1.776,1.669v7.645a4.429,4.429,0,0,1-3.851,4.316l-13.605,2.04V75.39Z" transform="translate(-72.936 -45.941)"/>
    <path id="Path_628" data-name="Path 628" class="cls-8" d="M242.951,13.891a115.9,115.9,0,0,1-6.9,34.346q-1.126,3.036-2.488,6.072l-6.071-.978a3.318,3.318,0,0,1-1.6-.712,3.159,3.159,0,0,1-1.2-2.463V45.473a3.258,3.258,0,0,0-2.832-3.179,383.645,383.645,0,0,0-52.666-3.646,3.289,3.289,0,0,0-3.377,3.219v8.262a3.262,3.262,0,0,1-2.84,3.179l-6.671,1s-11.781-38.157,8.706-45.127A13.335,13.335,0,0,1,178.076,0h61.661a3.426,3.426,0,0,1,2.333.905c1.439,1.3,1.076,3.628,1.084,5.354q.017,3.818-.2,7.632C242.93,14.3,243.211,9.276,242.951,13.891Z" transform="translate(-68.064 0)"/>
    <path id="Path_629" data-name="Path 629" class="cls-9" d="M349.137,13.891a115.923,115.923,0,0,1-6.9,34.346q-1.126,3.036-2.488,6.072l-6.071-.978a3.318,3.318,0,0,1-1.6-.712C343.162,26.7,340.687,0,340.687,0h5.236a3.426,3.426,0,0,1,2.333.905c1.439,1.3,1.076,3.628,1.084,5.354q.017,3.818-.2,7.632C349.116,14.3,349.4,9.276,349.137,13.891Z" transform="translate(-174.25)"/>
    <g id="Group_185" data-name="Group 185" transform="translate(63.283 118.397)">
      <path id="Path_630" data-name="Path 630" class="cls-4" d="M106.219,464.529v16.7H99.926v-16.7a3.149,3.149,0,0,1,6.293,0Z" transform="translate(-99.926 -399.63)"/>
      <path id="Path_631" data-name="Path 631" class="cls-4" d="M402.911,464.529v16.7h-6.293v-16.7a3.149,3.149,0,0,1,6.293,0Z" transform="translate(-275.789 -399.63)"/>
      <path id="Path_632" data-name="Path 632" class="cls-4" d="M186.064,303.56l23.188,13.4L200.619,333.9a3.432,3.432,0,0,1-5.424.829l-17.114-16.909a3.122,3.122,0,0,1-.71-3.432l3.842-9.262A3.416,3.416,0,0,1,186.064,303.56Z" transform="translate(-145.69 -303.097)"/>
      <path id="Path_633" data-name="Path 633" class="cls-4" d="M279.187,303.56,256,316.96l8.633,16.942a3.432,3.432,0,0,0,5.424.829l17.114-16.909a3.122,3.122,0,0,0,.71-3.432l-3.842-9.262A3.416,3.416,0,0,0,279.187,303.56Z" transform="translate(-192.437 -303.097)"/>
    </g>
  </g>
</svg>
