<svg xmlns="http://www.w3.org/2000/svg" viewBox="5455 -3031 24 21.698">
  <defs>
    <style>
      .cls-1 {
        fill: none;
      }

      .cls-2, .cls-3 {
        stroke: none;
      }

      .cls-3 {
        fill: #ff0002;
      }
    </style>
  </defs>
  <g id="Union_1" data-name="Union 1" class="cls-1" transform="translate(9769 -3031)">
    <path class="cls-2" d="M-4311.7,12l.009-.009A6.84,6.84,0,0,1-4314,6.857,6.857,6.857,0,0,1-4307.143,0a6.84,6.84,0,0,1,5.134,2.311L-4302,2.3l.009.009A6.84,6.84,0,0,1-4296.857,0,6.857,6.857,0,0,1-4290,6.857a6.842,6.842,0,0,1-2.312,5.134l.009.009-9.7,9.7Z"/>
    <path class="cls-3" d="M -4302 20.28342437744141 L -4293.7138671875 11.99684238433838 L -4293.76611328125 11.94406127929688 L -4292.974609375 11.24278163909912 C -4291.7197265625 10.13045120239258 -4291 8.53191089630127 -4291 6.857021331787109 C -4291 3.627451181411743 -4293.62744140625 1.000001192092896 -4296.857421875 1.000001192092896 C -4298.53271484375 1.000001192092896 -4300.13134765625 1.719651222229004 -4301.24267578125 2.974431276321411 L -4301.95556640625 3.779191255569458 L -4302.0244140625 3.708426475524902 L -4302.0693359375 3.751301288604736 L -4302.7578125 2.974371194839478 C -4303.86962890625 1.719631195068359 -4305.4677734375 1.000001192092896 -4307.14306640625 1.000001192092896 C -4310.37255859375 1.000001192092896 -4313 3.627451181411743 -4313 6.857021331787109 C -4313 8.532361030578613 -4312.2802734375 10.13091087341309 -4311.025390625 11.24280071258545 L -4310.22802734375 11.9492712020874 L -4310.28125 12.00205898284912 L -4302 20.28342437744141 M -4302 21.69766044616699 L -4311.697265625 12.00002098083496 L -4311.6884765625 11.99128150939941 C -4313.1064453125 10.73495101928711 -4314 8.90040111541748 -4314 6.857021331787109 C -4314 3.069841146469116 -4310.9296875 1.176757791654381e-06 -4307.14306640625 1.176757791654381e-06 C -4305.10009765625 1.176757791654381e-06 -4303.26513671875 0.8936811685562134 -4302.00927734375 2.311241149902344 L -4302 2.302381277084351 L -4301.9912109375 2.311381101608276 C -4300.7353515625 0.893541157245636 -4298.900390625 1.176757791654381e-06 -4296.857421875 1.176757791654381e-06 C -4293.06982421875 1.176757791654381e-06 -4290 3.069841146469116 -4290 6.857021331787109 C -4290 8.900171279907227 -4290.89404296875 10.73483085632324 -4292.3115234375 11.99115085601807 L -4292.302734375 12.00002098083496 L -4302 21.69766044616699 Z"/>
  </g>
</svg>
