<svg id="Group_223" data-name="Group 223" xmlns="http://www.w3.org/2000/svg" viewBox="5281.999 -479.955 371.001 51.953">
  <defs>
    <style>
      .cls-1, .cls-2, .cls-4 {
        fill: #f47c20;
      }

      .cls-2 {
        font-size: 36px;
        font-family: AdobeClean-Bold, Adobe Clean;
        font-weight: 700;
      }

      .cls-3 {
        fill: none;
      }

      .cls-4 {
        font-size: 22px;
        font-family: AdobeClean-Light, Adobe Clean;
        font-weight: 300;
      }
    </style>
  </defs>
  <path id="Path_54" data-name="Path 54" class="cls-1" d="M97.267,52.2h2.667c.381,0,.667.195.667.486s-.857.681-1.238.681H97.838c-.381,0-1.238-.389-1.238-.681S96.886,52.2,97.267,52.2Z" transform="translate(5205.325 -481.37)"/>
  <g id="Group_220" data-name="Group 220">
    <text id="INNOVATION" class="cls-2" transform="translate(5360 -438.665)"><tspan x="0" y="0">INNOVATION</tspan></text>
    <path id="Path_48" data-name="Path 48" class="cls-1" d="M83.7,22.71a13.985,13.985,0,0,0,8.572,12.842V37.4a2.464,2.464,0,0,0,2.476,2.432h6.381a2.464,2.464,0,0,0,2.476-2.432V35.552a14.072,14.072,0,0,0,8.667-12.842,14.289,14.289,0,0,0-28.573,0ZM99.51,10.84a8.928,8.928,0,0,1,4.762.681,9.243,9.243,0,0,1,3.81,3.113,11.808,11.808,0,0,1,2.191,9.34,18.405,18.405,0,0,0-.857-4.67,16.512,16.512,0,0,0-2.1-4.086,14.115,14.115,0,0,0-3.334-3.016A23.832,23.832,0,0,0,99.51,10.84ZM92.939,22.613c.286.389.667.876.952,1.265s.571.876.857,1.265c.571.876,1.048,1.751,1.524,2.627L97.7,30.4l.286.584a2.136,2.136,0,0,1,.286-.486c.19-.486.476-.876.667-1.362s.476-.876.667-1.362l1.429-2.627a22.688,22.688,0,0,1,1.619-2.53l-.286,1.459a5.669,5.669,0,0,1-.381,1.362c-.286.973-.571,1.849-.857,2.724-.19.486-.286.876-.476,1.362a7.734,7.734,0,0,0-.476,1.362c-.381.876-.762,1.849-1.143,2.724l-.952,2.238-1.048-2.238-.667-1.265L95.8,30.98c-.381-.876-.762-1.849-1.048-2.724a24.373,24.373,0,0,1-.952-2.821,10.149,10.149,0,0,1-.381-1.362A4.368,4.368,0,0,1,92.939,22.613Z" transform="translate(5207.938 -480.191)"/>
    <path id="Path_49" data-name="Path 49" class="cls-1" d="M98.8,8.7V30.59a.1.1,0,0,1,.1-.1c.19-.486.476-.876.667-1.362s.476-.876.667-1.362l1.429-2.627a22.688,22.688,0,0,1,1.619-2.53l-.286,1.459a5.669,5.669,0,0,1-.381,1.362c-.286.973-.571,1.849-.857,2.724-.19.486-.286.876-.476,1.362a7.734,7.734,0,0,0-.476,1.362c-.381.876-.762,1.849-1.143,2.724L98.8,35.552v4.184h2.953a2.464,2.464,0,0,0,2.476-2.432V35.455A14.072,14.072,0,0,0,112.9,22.613,13.99,13.99,0,0,0,98.8,8.7Zm11.239,10.7a16.512,16.512,0,0,0-2.1-4.086A14.115,14.115,0,0,0,104.61,12.3a11.154,11.154,0,0,0-4.381-1.459,8.928,8.928,0,0,1,4.762.681,9.244,9.244,0,0,1,3.81,3.113,11.808,11.808,0,0,1,2.191,9.34A24.331,24.331,0,0,0,110.039,19.4Z" transform="translate(5207.22 -480.191)"/>
    <path id="Path_50" data-name="Path 50" class="cls-1" d="M92.681,41.4H103.92c.19,0,.381.292.381.584s-.19.584-.381.584H92.681c-.19,0-.381-.292-.381-.584C92.3,41.595,92.49,41.4,92.681,41.4Z" transform="translate(5207.529 -481.077)"/>
    <path id="Path_51" data-name="Path 51" class="cls-1" d="M95.51,43.1h5.81c1.048,0,1.81.584,1.81,1.265s-.857,1.265-1.81,1.265H95.51c-1.048,0-1.81-.584-1.81-1.265S94.557,43.1,95.51,43.1Z" transform="translate(5207.463 -481.123)"/>
    <path id="Path_52" data-name="Path 52" class="cls-1" d="M95.61,46.2h5.81c1.048,0,1.81.584,1.81,1.265s-.857,1.265-1.81,1.265H95.61c-1.048,0-1.81-.584-1.81-1.265C93.8,46.686,94.562,46.2,95.61,46.2Z" transform="translate(5207.458 -481.207)"/>
    <path id="Path_53" data-name="Path 53" class="cls-1" d="M95.61,49.2h5.81c1.048,0,1.81.584,1.81,1.265s-.857,1.265-1.81,1.265H95.61c-1.048,0-1.81-.584-1.81-1.265S94.562,49.2,95.61,49.2Z" transform="translate(5207.458 -481.288)"/>
    <g id="Group_55" data-name="Group 55" transform="translate(5281.988 -479.955)">
      <path id="Path_74" data-name="Path 74" class="cls-1" d="M.077.276,6.286.233,6.275,1.856.065,1.9Z" transform="matrix(0.357, -0.934, 0.934, 0.357, 28.62, 6.34)"/>
      <path id="Path_75" data-name="Path 75" class="cls-1" d="M.115.358,6.25.3,6.234,1.941.1,2Z" transform="matrix(0.838, -0.546, 0.546, 0.838, 37.397, 12.587)"/>
      <path id="Path_76" data-name="Path 76" class="cls-1" d="M.039.012l1.654,0-.007,6.1-1.654,0Z" transform="matrix(0.052, -0.999, 0.999, 0.052, 40.955, 25.022)"/>
      <path id="Path_77" data-name="Path 77" class="cls-1" d="M.387.124,2.027.107,1.963,6.254l-1.64.017Z" transform="matrix(0.629, -0.777, 0.777, 0.629, 36.408, 35.388)"/>
      <path id="Path_78" data-name="Path 78" class="cls-3" d="M.115.358,6.25.3,6.234,1.941.1,2Z" transform="matrix(0.838, -0.545, 0.545, 0.838, 3.23, 35.709)"/>
      <path id="Path_79" data-name="Path 79" class="cls-1" d="M.038.012l1.654,0-.007,6.1-1.654,0Z" transform="translate(0 23.117) rotate(-87.049)"/>
      <path id="Path_80" data-name="Path 80" class="cls-1" d="M.387.124,2.027.107,1.963,6.254l-1.64.017Z" transform="matrix(0.628, -0.779, 0.779, 0.628, 4.283, 9.254)"/>
      <path id="Path_81" data-name="Path 81" class="cls-1" d="M.208.055,1.83.047,1.8,6.264.175,6.273Z" transform="matrix(0.966, -0.259, 0.259, 0.966, 16.292, 0.43)"/>
      <path id="Path_655" data-name="Path 655" class="cls-1" d="M.387.124,2.027.107,1.963,6.254l-1.64.017Z" transform="translate(4.989 39.461) rotate(-130.995)"/>
    </g>
    <text id="IDEATOR" class="cls-4" transform="translate(5574 -438.77)"><tspan x="0" y="0">IDEATOR</tspan></text>
  </g>
</svg>
