<svg xmlns="http://www.w3.org/2000/svg" xmlns:xlink="http://www.w3.org/1999/xlink" viewBox="5429 -2166 120 120">
  <defs>
    <style>
      .cls-1 {
        fill: none;
        stroke: #707070;
        stroke-width: 3px;
      }

      .cls-2 {
        clip-path: url(#clip-path);
      }

      .cls-3 {
        fill: #e6af78;
      }

      .cls-4 {
        fill: #eff2fa;
      }

      .cls-5 {
        fill: #d29b6e;
      }

      .cls-6 {
        fill: #f0c087;
      }

      .cls-7 {
        fill: #e4eaf6;
      }

      .cls-8 {
        fill: #5b5d6e;
      }

      .cls-9 {
        fill: #515262;
      }

      .cls-10 {
        fill: #785550;
      }

      .cls-11 {
        fill: #694b4b;
      }

      .cls-12 {
        fill: #5a4146;
      }
    </style>
    <clipPath id="clip-path">
      <rect id="Rectangle_77" data-name="Rectangle 77" class="cls-1" width="120" height="120" rx="8" transform="translate(282 1132)"/>
    </clipPath>
  </defs>
  <g id="Mask_Group_1" data-name="Mask Group 1" class="cls-2" transform="translate(5147 -3298)">
    <g id="boss" transform="translate(282 1132)">
      <path id="Path_91" data-name="Path 91" class="cls-3" d="M78.62,84.829V70.348H41.381V84.829L60,101.38Z"/>
      <path id="Path_92" data-name="Path 92" class="cls-4" d="M107.411,91.6,81.81,85.58a4.109,4.109,0,0,1-1.075-.433L60,97.243,40.074,84.562A4.122,4.122,0,0,1,38.19,85.58L12.59,91.6a8.275,8.275,0,0,0-6.38,8.055v16.2A4.138,4.138,0,0,0,10.347,120h99.3a4.138,4.138,0,0,0,4.138-4.138v-16.2A8.274,8.274,0,0,0,107.411,91.6Z"/>
      <path id="Path_93" data-name="Path 93" class="cls-5" d="M41.381,70.348v15.28c23.456,8.451,37.239-12.7,37.239-12.7v-2.58H41.381Z"/>
      <path id="Path_94" data-name="Path 94" class="cls-6" d="M33.105,22.764l1.8,39.663a12.413,12.413,0,0,0,4.952,9.367l8.554,6.416a12.415,12.415,0,0,0,7.448,2.483h8.276a12.413,12.413,0,0,0,7.448-2.483l8.554-6.416a12.413,12.413,0,0,0,4.952-9.367l1.8-39.663Z"/>
      <path id="Path_95" data-name="Path 95" class="cls-3" d="M53.794,31.039c8.276,0,20.688-2.069,23.633-8.276H33.105l1.8,39.663a12.413,12.413,0,0,0,4.953,9.367l8.554,6.416a12.415,12.415,0,0,0,7.448,2.483H60c-4.138,0-12.413-8.276-12.413-18.62V37.246C47.587,35.177,49.656,31.039,53.794,31.039Z"/>
      <g id="Group_146" data-name="Group 146">
        <path id="Path_96" data-name="Path 96" class="cls-7" d="M21.4,106.573,7.992,94.531A8.261,8.261,0,0,0,6.21,99.659v16.2A4.138,4.138,0,0,0,10.348,120H24.83v-5.731A10.345,10.345,0,0,0,21.4,106.573Z"/>
        <path id="Path_97" data-name="Path 97" class="cls-7" d="M98.6,106.573l13.406-12.043a8.261,8.261,0,0,1,1.782,5.129v16.2A4.138,4.138,0,0,1,109.653,120H95.171v-5.731A10.344,10.344,0,0,1,98.6,106.573Z"/>
      </g>
      <path id="Path_98" data-name="Path 98" class="cls-8" d="M65.173,120H54.828l1.293-18.62h7.758Z"/>
      <path id="Path_99" data-name="Path 99" class="cls-9" d="M65.173,97.242H54.828v3.894a2.313,2.313,0,0,0,2.313,2.313h5.718a2.313,2.313,0,0,0,2.313-2.313V97.242Z"/>
      <g id="Group_147" data-name="Group 147">
        <path id="Path_100" data-name="Path 100" class="cls-7" d="M41.09,80.223,60,97.242A71.359,71.359,0,0,0,48.169,105.3a2.655,2.655,0,0,1-4.11-.93L35.174,84.83l2.811-4.216A2.068,2.068,0,0,1,41.09,80.223Z"/>
        <path id="Path_101" data-name="Path 101" class="cls-7" d="M78.911,80.223,60,97.242A71.359,71.359,0,0,1,71.832,105.3a2.655,2.655,0,0,0,4.11-.93L84.826,84.83l-2.811-4.216A2.069,2.069,0,0,0,78.911,80.223Z"/>
      </g>
      <path id="Path_102" data-name="Path 102" class="cls-10" d="M72.543,9.058l1.939,13.706C83.336,24.535,84.612,38.429,84.8,42.4a4.08,4.08,0,0,0,.654,2.021l3.378,5.24S87.671,41,92.965,35.177C92.965,35.177,94.783.782,72.543,9.058Z"/>
      <path id="Path_103" data-name="Path 103" class="cls-6" d="M90.9,48.777l-2.336,9.342A2.487,2.487,0,0,1,86.154,60h0a2.487,2.487,0,0,1-2.468-2.179l-1.195-9.555a4.285,4.285,0,0,1,4.252-4.817h0A4.285,4.285,0,0,1,90.9,48.777Z"/>
      <path id="Path_104" data-name="Path 104" class="cls-11" d="M35.088,5.351l3.06,2.09C24.313,17.656,26.9,35.177,26.9,35.177c4.138,4.138,4.138,14.482,4.138,14.482l4.138-4.138s-1.6-11.953,6.206-16.551C48.621,24.7,54.957,26.9,61.422,26.9c17.327,0,22.176-6.53,21.335-14.482C82.322,8.305,76.031-.266,60,.007,53.53.116,41.381,2.075,35.088,5.351Z"/>
      <path id="Path_105" data-name="Path 105" class="cls-12" d="M33.881,25.091s-2.2-8.663,4.267-17.65C24.313,17.657,26.9,35.177,26.9,35.177c4.138,4.138,4.138,14.482,4.138,14.482l4.138-4.138s-1.6-11.953,6.206-16.551C48.621,24.7,54.957,26.9,61.422,26.9a50.83,50.83,0,0,0,7.461-.512C55.539,26.837,47.674,16.73,33.881,25.091Z"/>
      <path id="Path_106" data-name="Path 106" class="cls-3" d="M29.1,48.777l2.336,9.342A2.487,2.487,0,0,0,33.847,60h0a2.487,2.487,0,0,0,2.468-2.179l1.195-9.555a4.285,4.285,0,0,0-4.252-4.817h0A4.285,4.285,0,0,0,29.1,48.777Z"/>
      <path id="Path_107" data-name="Path 107" class="cls-7" d="M86.9,115.862H72.414a2.069,2.069,0,0,0-2.069,2.069V120h18.62v-2.069A2.069,2.069,0,0,0,86.9,115.862Z"/>
    </g>
  </g>
</svg>
