<svg id="Group_221" data-name="Group 221" xmlns="http://www.w3.org/2000/svg" viewBox="5286 -404.638 399 45.447">
  <defs>
    <style>
      .cls-1, .cls-2, .cls-3 {
        fill: #d22026;
      }

      .cls-2 {
        font-size: 36px;
        font-family: AdobeClean-Bold, Adobe Clean;
        font-weight: 700;
      }

      .cls-3 {
        font-size: 24px;
        font-family: AdobeClean-Light, Adobe Clean;
        font-weight: 300;
      }
    </style>
  </defs>
  <g id="Group_58" data-name="Group 58" transform="translate(5286 -400)">
    <path id="Path_55" data-name="Path 55" class="cls-1" d="M111.645,0h-4.931a.485.485,0,0,0-.418.526.458.458,0,0,0,.418.439h3.928L101.281,10.7a.554.554,0,0,0,0,.7.49.49,0,0,0,.669,0l9.278-9.738V5.7a.418.418,0,1,0,.836,0V.351h0A.388.388,0,0,0,111.645,0ZM77.293,0a4.019,4.019,0,0,0-4.1,3.948V29.829a.4.4,0,0,0,.418.439.46.46,0,0,0,.418-.439V3.948A3.094,3.094,0,0,1,77.293.965H101.7a.46.46,0,0,0,.418-.439A.4.4,0,0,0,101.7.088L77.293,0Zm34.352,10.44a.46.46,0,0,0-.418.439V36.848a3.094,3.094,0,0,1-3.26,2.983H83.645a.4.4,0,0,0-.418.439.458.458,0,0,0,.418.439h24.406a4,4,0,0,0,4.1-3.86V10.879a.475.475,0,0,0-.5-.439Zm-28,18.863c-.084,0-.167.088-.251.088l-9.361,9.826V35.181a.4.4,0,0,0-.418-.439.46.46,0,0,0-.418.439v5a.51.51,0,0,0,.585.614h4.764a.4.4,0,0,0,.418-.439.458.458,0,0,0-.418-.439H74.7l9.361-9.738c.251-.351-.084-.965-.418-.877Z" transform="translate(-73.184)"/>
  </g>
  <g id="Group_66" data-name="Group 66" transform="translate(5296.711 -389.998)">
    <g id="Group_65" data-name="Group 65">
      <g id="Group_64" data-name="Group 64">
        <g id="Group_63" data-name="Group 63">
          <g id="Group_59" data-name="Group 59" transform="translate(11.283 9.826)">
            <path id="Path_56" data-name="Path 56" class="cls-1" d="M101.422,24.355h.251c.084,0,.167-.088.334-.263l.836-.965.418-.526.418,1.93h0v.088h0v.175c.084.088.084.175.251.175l1.755.7-1.337.79-.251.088c-.334.175-.418.351-.418.526v.088c0,.263-.084,1.93-.084,1.93l-.251-.263c-.334-.351-1-.877-1.087-1.053l-.084-.088c-.084,0-.167-.088-.334-.088s-2.006.526-2.006.526l.752-1.93c.084-.263-.084-.526-.334-.965C100.169,25.144,99.5,24,99.5,24Z" transform="translate(-99.5 -22.6)"/>
          </g>
          <g id="Group_60" data-name="Group 60" transform="translate(2.173 8.686)">
            <path id="Path_57" data-name="Path 57" class="cls-1" d="M91.609,31.126a.481.481,0,0,0,.418-.175.339.339,0,0,0,0-.526l-1-1.842.752-1.842.084-.175a.408.408,0,0,0,0-.439c-.084,0-.084-.088-.167-.088h-.084c-.084-.088-.251,0-.334,0-.167.088-2.006.526-2.006.526h0c1.17-3.334,3.761-5.264,5.684-5.264a5.352,5.352,0,0,1,3.594,1.755c-.669-.088-1.672-.088-2.257-.175a.587.587,0,0,0-.5.263c-.084.175-.167.439-.084.526.5.79,1.588,2.632,1.588,2.632s-.836,2.106-1.087,2.632a.6.6,0,0,0,.084.526c.167.175.334.351.5.263l2.758-.79,1.755,1.579v.175a2.446,2.446,0,0,1-.752,1.842c-1,.965-3.343,1.4-5.767,1.4-2.34,0-4.764-.439-5.767-1.4a1.926,1.926,0,0,1-.418-.7l.752-.965Z" transform="translate(-88.6 -21.3)"/>
          </g>
          <g id="Group_61" data-name="Group 61" transform="translate(5.182)">
            <path id="Path_58" data-name="Path 58" class="cls-1" d="M95.627,18.682A3.554,3.554,0,0,1,92.2,15a3.477,3.477,0,0,1,3.427-3.6,3.623,3.623,0,0,1,3.51,3.685A3.66,3.66,0,0,1,95.627,18.682Z" transform="translate(-92.2 -11.4)"/>
          </g>
          <g id="Group_62" data-name="Group 62" transform="translate(0 14.037)">
            <path id="Path_59" data-name="Path 59" class="cls-1" d="M87.588,31.7a11.061,11.061,0,0,0-.251-1.228v-.088l-.167-.175a4.024,4.024,0,0,1-.752-.351A3.422,3.422,0,0,1,86,29.681l.5-.351.5-.351c.167-.088.167-.263.167-.614,0-.088.084-.965.084-.965l.919.877h.084c.084,0,.167.088.334,0l1.17-.263-.5,1.141h0v.088c0,.088,0,.088.084.175l.585,1.053-1.17-.175c-.251,0-.334,0-.418.088a.083.083,0,0,0-.084.088c0,.088-.251.263-.418.526A2.178,2.178,0,0,1,87.588,31.7Z" transform="translate(-86 -27.4)"/>
          </g>
        </g>
      </g>
    </g>
  </g>
  <text id="SCALABILITY" class="cls-2" transform="translate(5360 -368.638)"><tspan x="0" y="0">SCALABILITY</tspan></text>
  <text id="SUPERSTAR" class="cls-3" transform="translate(5573 -369.271)"><tspan x="0" y="0">SUPERSTAR</tspan></text>
</svg>
